<svg width="179" height="43" viewBox="0 0 179 43" fill="none" xmlns="http://www.w3.org/2000/svg">
<g filter="url(#filter0_d_101_3)">
<path d="M5.59742 27C5.35742 27 5.15342 26.916 4.98542 26.748C4.81742 26.58 4.73342 26.376 4.73342 26.136V9.144C4.73342 8.904 4.81742 8.7 4.98542 8.532C5.15342 8.364 5.35742 8.28 5.59742 8.28H8.54942C8.78942 8.28 8.99342 8.364 9.16142 8.532C9.32942 8.7 9.41342 8.904 9.41342 9.144V10.62C10.0374 9.852 10.8294 9.216 11.7894 8.712C12.7734 8.184 13.9854 7.92 15.4254 7.92C16.8894 7.92 18.1614 8.256 19.2414 8.928C20.3214 9.576 21.1494 10.5 21.7254 11.7C22.3254 12.9 22.6254 14.34 22.6254 16.02V26.136C22.6254 26.376 22.5414 26.58 22.3734 26.748C22.2054 26.916 22.0014 27 21.7614 27H18.5934C18.3534 27 18.1494 26.916 17.9814 26.748C17.8134 26.58 17.7294 26.376 17.7294 26.136V16.236C17.7294 14.844 17.3814 13.752 16.6854 12.96C16.0134 12.168 15.0294 11.772 13.7334 11.772C12.4854 11.772 11.4894 12.168 10.7454 12.96C10.0014 13.752 9.62942 14.844 9.62942 16.236V26.136C9.62942 26.376 9.54542 26.58 9.37742 26.748C9.20942 26.916 9.00542 27 8.76542 27H5.59742ZM35.4783 27.36C33.5583 27.36 31.9383 27.024 30.6183 26.352C29.3223 25.68 28.3263 24.732 27.6303 23.508C26.9583 22.284 26.5743 20.856 26.4783 19.224C26.4543 18.792 26.4423 18.264 26.4423 17.64C26.4423 17.016 26.4543 16.488 26.4783 16.056C26.5743 14.4 26.9703 12.972 27.6663 11.772C28.3863 10.548 29.3943 9.6 30.6903 8.928C32.0103 8.256 33.6063 7.92 35.4783 7.92C37.3503 7.92 38.9343 8.256 40.2303 8.928C41.5503 9.6 42.5583 10.548 43.2543 11.772C43.9743 12.972 44.3823 14.4 44.4783 16.056C44.5023 16.488 44.5143 17.016 44.5143 17.64C44.5143 18.264 44.5023 18.792 44.4783 19.224C44.3823 20.856 43.9863 22.284 43.2903 23.508C42.6183 24.732 41.6223 25.68 40.3023 26.352C39.0063 27.024 37.3983 27.36 35.4783 27.36ZM35.4783 23.796C36.7503 23.796 37.7343 23.4 38.4303 22.608C39.1263 21.792 39.5103 20.604 39.5823 19.044C39.6063 18.684 39.6183 18.216 39.6183 17.64C39.6183 17.064 39.6063 16.596 39.5823 16.236C39.5103 14.7 39.1263 13.524 38.4303 12.708C37.7343 11.892 36.7503 11.484 35.4783 11.484C34.2063 11.484 33.2223 11.892 32.5263 12.708C31.8303 13.524 31.4463 14.7 31.3743 16.236C31.3503 16.596 31.3383 17.064 31.3383 17.64C31.3383 18.216 31.3503 18.684 31.3743 19.044C31.4463 20.604 31.8303 21.792 32.5263 22.608C33.2223 23.4 34.2063 23.796 35.4783 23.796ZM56.8223 27C55.3823 27 54.1703 26.748 53.1863 26.244C52.2023 25.74 51.4703 24.996 50.9903 24.012C50.5103 23.004 50.2703 21.756 50.2703 20.268V12.096H47.4263C47.1863 12.096 46.9823 12.012 46.8143 11.844C46.6463 11.676 46.5623 11.472 46.5623 11.232V9.144C46.5623 8.904 46.6463 8.7 46.8143 8.532C46.9823 8.364 47.1863 8.28 47.4263 8.28H50.2703V2.304C50.2703 2.064 50.3423 1.86 50.4863 1.692C50.6543 1.524 50.8703 1.44 51.1343 1.44H54.0503C54.2903 1.44 54.4943 1.524 54.6623 1.692C54.8303 1.86 54.9143 2.064 54.9143 2.304V8.28H59.4143C59.6543 8.28 59.8583 8.364 60.0263 8.532C60.1943 8.7 60.2783 8.904 60.2783 9.144V11.232C60.2783 11.472 60.1943 11.676 60.0263 11.844C59.8583 12.012 59.6543 12.096 59.4143 12.096H54.9143V19.908C54.9143 20.892 55.0823 21.66 55.4183 22.212C55.7783 22.764 56.3903 23.04 57.2543 23.04H59.7383C59.9783 23.04 60.1823 23.124 60.3503 23.292C60.5183 23.46 60.6023 23.664 60.6023 23.904V26.136C60.6023 26.376 60.5183 26.58 60.3503 26.748C60.1823 26.916 59.9783 27 59.7383 27H56.8223ZM71.8599 27.36C69.1959 27.36 67.0839 26.592 65.5239 25.056C63.9639 23.52 63.1239 21.336 63.0039 18.504C62.9799 18.264 62.9679 17.964 62.9679 17.604C62.9679 17.22 62.9799 16.92 63.0039 16.704C63.0999 14.904 63.5079 13.344 64.2279 12.024C64.9719 10.704 65.9919 9.696 67.2879 9C68.5839 8.28 70.1079 7.92 71.8599 7.92C73.8039 7.92 75.4359 8.328 76.7559 9.144C78.0759 9.936 79.0719 11.052 79.7439 12.492C80.4159 13.908 80.7519 15.552 80.7519 17.424V18.18C80.7519 18.42 80.6679 18.624 80.4999 18.792C80.3319 18.96 80.1159 19.044 79.8519 19.044H67.8999C67.8999 19.044 67.8999 19.08 67.8999 19.152C67.8999 19.224 67.8999 19.284 67.8999 19.332C67.9239 20.172 68.0799 20.952 68.3679 21.672C68.6799 22.368 69.1239 22.932 69.6999 23.364C70.2999 23.796 71.0079 24.012 71.8239 24.012C72.4959 24.012 73.0599 23.916 73.5159 23.724C73.9719 23.508 74.3439 23.268 74.6319 23.004C74.9199 22.74 75.1239 22.524 75.2439 22.356C75.4599 22.068 75.6279 21.9 75.7479 21.852C75.8919 21.78 76.0959 21.744 76.3599 21.744H79.4559C79.6959 21.744 79.8879 21.816 80.0319 21.96C80.1999 22.104 80.2719 22.284 80.2479 22.5C80.2239 22.884 80.0199 23.352 79.6359 23.904C79.2759 24.456 78.7479 24.996 78.0519 25.524C77.3559 26.052 76.4799 26.496 75.4239 26.856C74.3919 27.192 73.2039 27.36 71.8599 27.36ZM67.8999 16.02H75.8559V15.912C75.8559 14.976 75.6999 14.16 75.3879 13.464C75.0759 12.768 74.6199 12.216 74.0199 11.808C73.4199 11.4 72.6999 11.196 71.8599 11.196C71.0199 11.196 70.2999 11.4 69.6999 11.808C69.0999 12.216 68.6439 12.768 68.3319 13.464C68.0439 14.16 67.8999 14.976 67.8999 15.912V16.02Z" fill="#0469FF"/>
<path d="M87.2775 27C87.0375 27 86.8335 26.916 86.6655 26.748C86.4975 26.58 86.4135 26.376 86.4135 26.136V12.096H83.4975C83.2575 12.096 83.0535 12.012 82.8855 11.844C82.7175 11.676 82.6335 11.472 82.6335 11.232V9.144C82.6335 8.904 82.7175 8.7 82.8855 8.532C83.0535 8.364 83.2575 8.28 83.4975 8.28H86.4135V6.804C86.4135 5.364 86.6775 4.176 87.2055 3.24C87.7335 2.28 88.5135 1.56 89.5455 1.08C90.5775 0.599999 91.8855 0.36 93.4695 0.36H95.9175C96.1815 0.36 96.3855 0.443999 96.5295 0.611999C96.6975 0.779999 96.7815 0.983999 96.7815 1.224V3.312C96.7815 3.552 96.6975 3.756 96.5295 3.924C96.3855 4.092 96.1815 4.176 95.9175 4.176H93.6135C92.6535 4.176 91.9935 4.416 91.6335 4.896C91.2735 5.376 91.0935 6.072 91.0935 6.984V8.28H95.5575C95.8215 8.28 96.0255 8.364 96.1695 8.532C96.3375 8.7 96.4215 8.904 96.4215 9.144V11.232C96.4215 11.472 96.3375 11.676 96.1695 11.844C96.0255 12.012 95.8215 12.096 95.5575 12.096H91.0935V26.136C91.0935 26.376 91.0095 26.58 90.8415 26.748C90.6735 26.916 90.4695 27 90.2295 27H87.2775ZM107.302 27.36C105.382 27.36 103.762 27.024 102.442 26.352C101.146 25.68 100.15 24.732 99.4545 23.508C98.7825 22.284 98.3985 20.856 98.3025 19.224C98.2785 18.792 98.2665 18.264 98.2665 17.64C98.2665 17.016 98.2785 16.488 98.3025 16.056C98.3985 14.4 98.7945 12.972 99.4905 11.772C100.21 10.548 101.218 9.6 102.514 8.928C103.834 8.256 105.43 7.92 107.302 7.92C109.174 7.92 110.758 8.256 112.054 8.928C113.374 9.6 114.382 10.548 115.078 11.772C115.798 12.972 116.206 14.4 116.302 16.056C116.326 16.488 116.338 17.016 116.338 17.64C116.338 18.264 116.326 18.792 116.302 19.224C116.206 20.856 115.81 22.284 115.114 23.508C114.442 24.732 113.446 25.68 112.126 26.352C110.83 27.024 109.222 27.36 107.302 27.36ZM107.302 23.796C108.574 23.796 109.558 23.4 110.254 22.608C110.95 21.792 111.334 20.604 111.406 19.044C111.43 18.684 111.442 18.216 111.442 17.64C111.442 17.064 111.43 16.596 111.406 16.236C111.334 14.7 110.95 13.524 110.254 12.708C109.558 11.892 108.574 11.484 107.302 11.484C106.03 11.484 105.046 11.892 104.35 12.708C103.654 13.524 103.27 14.7 103.198 16.236C103.174 16.596 103.162 17.064 103.162 17.64C103.162 18.216 103.174 18.684 103.198 19.044C103.27 20.604 103.654 21.792 104.35 22.608C105.046 23.4 106.03 23.796 107.302 23.796ZM121.191 27C120.951 27 120.747 26.916 120.579 26.748C120.411 26.58 120.327 26.376 120.327 26.136V9.18C120.327 8.916 120.411 8.7 120.579 8.532C120.747 8.364 120.951 8.28 121.191 8.28H124.107C124.347 8.28 124.551 8.364 124.719 8.532C124.911 8.7 125.007 8.916 125.007 9.18V10.656C125.559 9.888 126.267 9.3 127.131 8.892C128.019 8.484 129.039 8.28 130.191 8.28H131.667C131.931 8.28 132.135 8.364 132.279 8.532C132.447 8.7 132.531 8.904 132.531 9.144V11.736C132.531 11.976 132.447 12.18 132.279 12.348C132.135 12.516 131.931 12.6 131.667 12.6H128.859C127.707 12.6 126.807 12.924 126.159 13.572C125.535 14.22 125.223 15.108 125.223 16.236V26.136C125.223 26.376 125.139 26.58 124.971 26.748C124.803 26.916 124.587 27 124.323 27H121.191ZM143.518 34.92C141.766 34.92 140.326 34.692 139.198 34.236C138.07 33.78 137.182 33.228 136.534 32.58C135.886 31.932 135.418 31.284 135.13 30.636C134.866 30.012 134.722 29.52 134.698 29.16C134.674 28.92 134.746 28.704 134.914 28.512C135.106 28.344 135.322 28.26 135.562 28.26H138.694C138.934 28.26 139.126 28.308 139.27 28.404C139.414 28.524 139.534 28.728 139.63 29.016C139.774 29.328 139.966 29.664 140.206 30.024C140.446 30.384 140.806 30.684 141.286 30.924C141.79 31.188 142.474 31.32 143.338 31.32C144.25 31.32 145.018 31.188 145.642 30.924C146.266 30.66 146.734 30.216 147.046 29.592C147.382 28.968 147.55 28.104 147.55 27V24.552C146.974 25.248 146.23 25.812 145.318 26.244C144.43 26.676 143.326 26.892 142.006 26.892C140.71 26.892 139.594 26.688 138.658 26.28C137.722 25.848 136.942 25.26 136.318 24.516C135.694 23.748 135.214 22.848 134.878 21.816C134.566 20.784 134.386 19.644 134.338 18.396C134.314 17.748 134.314 17.1 134.338 16.452C134.386 15.252 134.566 14.136 134.878 13.104C135.19 12.072 135.658 11.172 136.282 10.404C136.93 9.612 137.722 9 138.658 8.568C139.594 8.136 140.71 7.92 142.006 7.92C143.374 7.92 144.526 8.184 145.462 8.712C146.398 9.216 147.166 9.852 147.766 10.62V9.18C147.766 8.916 147.85 8.7 148.018 8.532C148.186 8.364 148.39 8.28 148.63 8.28H151.546C151.786 8.28 151.99 8.364 152.158 8.532C152.326 8.7 152.41 8.916 152.41 9.18L152.446 26.532C152.446 28.26 152.122 29.748 151.474 30.996C150.826 32.244 149.842 33.204 148.522 33.876C147.226 34.572 145.558 34.92 143.518 34.92ZM143.338 23.076C144.322 23.076 145.114 22.86 145.714 22.428C146.314 21.996 146.758 21.432 147.046 20.736C147.334 20.04 147.502 19.332 147.55 18.612C147.574 18.3 147.586 17.904 147.586 17.424C147.586 16.944 147.574 16.56 147.55 16.272C147.502 15.528 147.334 14.82 147.046 14.148C146.758 13.452 146.314 12.888 145.714 12.456C145.114 12 144.322 11.772 143.338 11.772C142.354 11.772 141.562 12 140.962 12.456C140.362 12.888 139.93 13.464 139.666 14.184C139.426 14.904 139.282 15.696 139.234 16.56C139.186 17.136 139.186 17.724 139.234 18.324C139.282 19.164 139.426 19.956 139.666 20.7C139.93 21.42 140.362 21.996 140.962 22.428C141.562 22.86 142.354 23.076 143.338 23.076ZM165.305 27.36C162.641 27.36 160.529 26.592 158.969 25.056C157.409 23.52 156.569 21.336 156.449 18.504C156.425 18.264 156.413 17.964 156.413 17.604C156.413 17.22 156.425 16.92 156.449 16.704C156.545 14.904 156.953 13.344 157.673 12.024C158.417 10.704 159.437 9.696 160.733 9C162.029 8.28 163.553 7.92 165.305 7.92C167.249 7.92 168.881 8.328 170.201 9.144C171.521 9.936 172.517 11.052 173.189 12.492C173.861 13.908 174.197 15.552 174.197 17.424V18.18C174.197 18.42 174.113 18.624 173.945 18.792C173.777 18.96 173.561 19.044 173.297 19.044H161.345C161.345 19.044 161.345 19.08 161.345 19.152C161.345 19.224 161.345 19.284 161.345 19.332C161.369 20.172 161.525 20.952 161.813 21.672C162.125 22.368 162.569 22.932 163.145 23.364C163.745 23.796 164.453 24.012 165.269 24.012C165.941 24.012 166.505 23.916 166.961 23.724C167.417 23.508 167.789 23.268 168.077 23.004C168.365 22.74 168.569 22.524 168.689 22.356C168.905 22.068 169.073 21.9 169.193 21.852C169.337 21.78 169.541 21.744 169.805 21.744H172.901C173.141 21.744 173.333 21.816 173.477 21.96C173.645 22.104 173.717 22.284 173.693 22.5C173.669 22.884 173.465 23.352 173.081 23.904C172.721 24.456 172.193 24.996 171.497 25.524C170.801 26.052 169.925 26.496 168.869 26.856C167.837 27.192 166.649 27.36 165.305 27.36ZM161.345 16.02H169.301V15.912C169.301 14.976 169.145 14.16 168.833 13.464C168.521 12.768 168.065 12.216 167.465 11.808C166.865 11.4 166.145 11.196 165.305 11.196C164.465 11.196 163.745 11.4 163.145 11.808C162.545 12.216 162.089 12.768 161.777 13.464C161.489 14.16 161.345 14.976 161.345 15.912V16.02Z" fill="#7000FF"/>
</g>
<defs>
<filter id="filter0_d_101_3" x="0.733398" y="0.359985" width="177.464" height="42.56" filterUnits="userSpaceOnUse" color-interpolation-filters="sRGB">
<feFlood flood-opacity="0" result="BackgroundImageFix"/>
<feColorMatrix in="SourceAlpha" type="matrix" values="0 0 0 0 0 0 0 0 0 0 0 0 0 0 0 0 0 0 127 0" result="hardAlpha"/>
<feOffset dy="4"/>
<feGaussianBlur stdDeviation="2"/>
<feComposite in2="hardAlpha" operator="out"/>
<feColorMatrix type="matrix" values="0 0 0 0 0 0 0 0 0 0 0 0 0 0 0 0 0 0 0.25 0"/>
<feBlend mode="normal" in2="BackgroundImageFix" result="effect1_dropShadow_101_3"/>
<feBlend mode="normal" in="SourceGraphic" in2="effect1_dropShadow_101_3" result="shape"/>
</filter>
</defs>
</svg>
