<svg fill="#ffffff" height="200px" width="200px" version="1.1" id="Capa_1" xmlns="http://www.w3.org/2000/svg" xmlns:xlink="http://www.w3.org/1999/xlink" viewBox="0 0 56 56" xml:space="preserve" stroke="#ffffff"><g id="SVGRepo_bgCarrier" stroke-width="0"></g><g id="SVGRepo_tracerCarrier" stroke-linecap="round" stroke-linejoin="round"></g><g id="SVGRepo_iconCarrier"> <g> <g> <path d="M56,33.5h-4h-2h-5.276l0.111-2.146c0.094-1.826-0.533-3.545-1.765-4.842c-1.233-1.297-2.918-2.012-4.747-2.012h-0.646 c-1.829,0-3.515,0.714-4.747,2.012c-1.231,1.296-1.858,3.017-1.765,4.842v0l0.111,2.146h-6.552l0.111-2.146 c0.094-1.826-0.533-3.545-1.765-4.842c-1.233-1.297-2.918-2.012-4.747-2.012h-0.646c-1.829,0-3.515,0.714-4.747,2.012 c-1.231,1.296-1.858,3.017-1.765,4.842v0l0.111,2.146H6H4H0v2h4v18h2v-18h5.379l0.31,6H10v1v1v10h2v-10h0.742h10.516H24v10h2v-10 v-1v-1h-1.689l0.31-6h6.758l0.31,6H30v1v1v10h2v-10h0.742h10.516H44v10h2v-10v-1v-1h-1.689l0.31-6H50v18h2v-18h4V33.5z M13.691,41.5l-0.528-10.249c-0.065-1.273,0.366-2.467,1.217-3.363s2.022-1.389,3.297-1.389h0.646 c1.275,0,2.446,0.493,3.297,1.389c0.851,0.896,1.283,2.089,1.217,3.362L22.309,41.5H13.691z M33.691,41.5l-0.528-10.249 c-0.065-1.273,0.366-2.467,1.217-3.363s2.022-1.389,3.297-1.389h0.646c1.275,0,2.446,0.493,3.297,1.389 c0.851,0.896,1.283,2.089,1.217,3.362L42.309,41.5H33.691z"></path> <path d="M27.5,19.5c4.687,0,8.5-3.813,8.5-8.5s-3.813-8.5-8.5-8.5S19,6.313,19,11S22.813,19.5,27.5,19.5z M27.5,4.5 c3.584,0,6.5,2.916,6.5,6.5s-2.916,6.5-6.5,6.5S21,14.584,21,11S23.916,4.5,27.5,4.5z"></path> <path d="M26.753,10.667l-1.621,2.837c-0.274,0.479-0.107,1.09,0.372,1.364C25.66,14.958,25.831,15,25.999,15 c0.348,0,0.685-0.181,0.869-0.504l2-3.5c0.224-0.392,0.158-0.884-0.161-1.203l-2-2c-0.391-0.391-1.023-0.391-1.414,0 s-0.391,1.023,0,1.414L26.753,10.667z"></path> </g> </g> </g></svg>